<?xml version="1.0" standalone="no"?>
<!DOCTYPE svg PUBLIC "-//W3C//DTD SVG 20010904//EN"
 "http://www.w3.org/TR/2001/REC-SVG-20010904/DTD/svg10.dtd">
<svg version="1.0" xmlns="http://www.w3.org/2000/svg"
 width="1024.000000pt" height="1024.000000pt" viewBox="0 0 1024.000000 1024.000000"
 preserveAspectRatio="xMidYMid meet">

<g transform="translate(0.000000,1024.000000) scale(0.100000,-0.100000)"
fill="#000000" stroke="none">
<path d="M5031 8569 c-80 -15 -188 -74 -246 -133 -173 -177 -176 -456 -7 -636
52 -55 145 -115 204 -131 l38 -10 0 -308 0 -309 -57 -6 c-117 -14 -280 -46
-358 -71 -102 -34 -283 -120 -375 -179 -39 -25 -72 -46 -75 -46 -2 0 -5 105
-7 233 -3 200 -5 236 -21 265 -27 50 -48 72 -92 95 -38 21 -55 22 -311 25
l-271 3 -17 54 c-34 108 -136 214 -262 272 -69 32 -198 42 -283 24 -222 -48
-391 -275 -366 -494 21 -191 154 -349 337 -402 l57 -16 3 -257 c4 -320 3 -335
-25 -347 -20 -9 -22 -18 -25 -111 -4 -134 -2 -136 127 -132 l96 3 9 86 c12
117 5 151 -35 166 l-32 12 6 168 c4 92 7 222 7 288 l0 121 70 17 c154 40 299
184 326 325 l6 32 233 0 233 0 26 -31 c23 -26 26 -40 26 -100 l0 -69 -88 0
c-84 0 -89 1 -102 25 -42 78 -177 75 -210 -5 -16 -39 -8 -115 15 -140 47 -52
139 -49 182 5 l28 35 88 0 87 0 0 -120 c0 -75 4 -127 12 -139 10 -17 0 -31
-85 -121 -99 -104 -194 -236 -249 -344 -79 -157 -143 -372 -155 -523 l-6 -83
-304 0 c-280 0 -304 1 -309 18 -3 9 -20 46 -37 82 -70 148 -252 260 -423 260
-113 0 -251 -55 -332 -133 -151 -145 -186 -382 -86 -568 59 -108 167 -193 289
-225 65 -18 186 -18 251 0 148 39 285 163 329 297 l17 49 301 -2 302 -3 7 -70
c23 -225 134 -515 269 -698 l49 -67 115 0 116 0 -54 63 c-358 422 -430 1025
-182 1517 66 130 157 250 282 370 131 126 236 199 394 274 133 62 206 87 344
118 146 32 445 32 591 0 196 -42 388 -121 535 -219 79 -52 79 -52 158 17 54
47 53 47 -63 124 -231 153 -478 240 -771 271 l-60 6 0 306 0 305 64 23 c323
118 420 509 186 754 -114 120 -274 171 -434 140z m227 -178 c128 -65 195 -196
170 -331 -12 -67 -28 -99 -75 -151 -152 -168 -415 -126 -511 81 -34 72 -36
173 -5 241 38 84 113 151 203 180 47 16 172 4 218 -20z m-2109 -866 c100 -55
154 -147 155 -265 1 -89 -25 -151 -87 -213 -61 -61 -127 -87 -223 -87 -99 0
-162 28 -228 101 -59 65 -80 129 -74 223 8 120 67 204 179 256 36 17 60 20
134 17 77 -2 98 -7 144 -32z m-605 -1796 c104 -48 177 -154 184 -266 10 -149
-82 -275 -233 -318 -76 -22 -141 -15 -223 26 -250 123 -218 487 51 575 58 19
162 11 221 -17z"/>
<path d="M4323 7964 c-10 -4 -12 -35 -11 -112 l2 -107 5 105 6 105 107 3 107
3 4 -83 3 -83 0 85 -1 85 -105 2 c-58 1 -111 -1 -117 -3z"/>
<path d="M4537 7746 c-4 -9 -23 -16 -49 -19 l-43 -4 41 -1 c38 -2 76 19 62 34
-3 3 -8 -2 -11 -10z"/>
<path d="M4590 7541 c-16 -30 -13 -176 4 -190 9 -8 47 -11 107 -9 l94 3 9 93
c11 121 10 122 -110 122 -82 0 -95 -2 -104 -19z m167 3 c-3 -3 -12 -4 -19 -1
-8 3 -5 6 6 6 11 1 17 -2 13 -5z"/>
<path d="M4980 6714 c-76 -9 -237 -47 -304 -71 -369 -132 -683 -443 -800 -793
-44 -135 -58 -225 -59 -385 -2 -166 11 -254 54 -390 95 -301 329 -577 619
-734 86 -46 248 -102 365 -126 120 -25 349 -31 465 -11 569 93 1000 507 1095
1050 19 112 19 284 0 403 -83 512 -508 933 -1047 1038 -81 16 -319 27 -388 19z
m345 -239 c66 -53 127 -135 181 -237 l45 -88 -186 0 -185 0 1 183 c1 100 3
185 5 188 2 3 23 3 48 -1 31 -4 60 -19 91 -45z m-270 -140 l0 -185 -177 0
c-98 0 -178 3 -178 6 0 4 21 46 47 95 85 161 196 269 278 269 l30 0 0 -185z
m-340 85 c-29 -39 -76 -115 -102 -170 l-48 -100 -155 0 -154 0 74 75 c111 112
244 199 375 246 28 10 53 18 57 18 4 1 -17 -31 -47 -69z m831 44 c132 -49 269
-141 379 -253 l59 -61 -154 0 -155 0 -23 60 c-26 65 -99 183 -151 243 -18 20
-31 37 -28 37 2 0 36 -12 73 -26z m-1037 -491 c-23 -81 -59 -318 -59 -385 l0
-48 -225 0 -225 0 6 43 c17 122 62 264 121 382 40 80 27 75 223 75 l177 0 -18
-67z m543 -183 l-3 -250 -234 0 -235 0 0 38 c0 62 27 261 49 359 12 51 21 95
21 98 0 3 91 5 203 5 l202 0 -3 -250z m561 123 c24 -118 47 -286 47 -348 l0
-25 -237 0 -238 0 0 250 0 250 201 0 201 0 26 -127z m477 95 c68 -110 132
-289 146 -407 l7 -61 -225 0 -224 0 -12 128 c-10 109 -21 173 -58 345 l-6 27
176 0 176 0 20 -32z m-1650 -682 c0 -73 28 -265 53 -364 l23 -92 -175 2 -176
3 -42 80 c-65 122 -113 283 -113 375 l0 40 215 0 215 0 0 -44z m610 -206 l0
-250 -195 0 -194 0 -16 53 c-34 111 -64 351 -56 440 1 4 105 7 231 7 l230 0 0
-250z m604 178 c-8 -102 -40 -292 -61 -363 l-19 -60 -192 -3 -192 -2 0 250 0
250 234 0 235 0 -5 -72z m580 25 c-16 -130 -62 -267 -126 -380 l-42 -73 -173
0 c-95 0 -173 1 -173 3 0 2 7 26 15 53 25 86 55 282 55 365 l0 79 225 0 225 0
-6 -47z m-1799 -572 l130 -1 25 -57 c29 -69 105 -186 156 -243 l37 -41 -29 6
c-46 10 -233 102 -288 143 -57 41 -206 181 -206 194 0 4 10 6 23 4 12 -3 81
-5 152 -5z m615 -186 l0 -185 -32 0 c-71 0 -201 137 -279 292 -22 43 -39 79
-39 80 0 2 79 2 175 0 l175 -3 0 -184z m480 182 c0 -13 -50 -108 -92 -174 -21
-33 -70 -91 -109 -127 -58 -55 -75 -66 -104 -66 l-35 0 0 188 0 187 170 0 c94
0 170 -4 170 -8z m370 -69 c-103 -99 -228 -182 -345 -232 -48 -20 -91 -36 -97
-36 -5 0 9 20 32 44 56 58 109 137 151 224 l34 71 126 3 c69 2 138 4 155 5 27
2 23 -4 -56 -79z"/>
<path d="M6163 6438 c209 -212 339 -452 403 -743 23 -111 24 -348 1 -475 -74
-400 -303 -731 -658 -951 -265 -164 -620 -250 -914 -219 -260 27 -455 91 -678
223 l-68 40 -52 -51 c-29 -29 -58 -52 -65 -52 -25 0 -9 -17 61 -62 125 -81
238 -136 377 -182 152 -50 247 -71 368 -82 l82 -7 0 -312 0 -312 -34 -6 c-58
-9 -142 -57 -200 -114 -222 -219 -158 -580 128 -718 289 -139 630 33 676 342
28 184 -71 372 -242 458 -39 19 -79 35 -89 35 -51 0 -49 -10 -49 320 l0 307
86 7 c225 17 501 109 703 235 46 28 86 49 89 46 3 -3 6 -107 6 -232 1 -219 2
-230 25 -273 13 -25 39 -59 58 -77 61 -56 99 -63 363 -63 l237 0 13 -42 c51
-172 245 -308 440 -308 72 0 163 20 225 50 61 29 149 113 189 179 162 266 6
621 -299 683 l-55 11 0 321 0 321 23 10 c20 9 22 17 25 109 2 73 -1 102 -10
108 -7 4 -54 8 -105 8 -111 0 -113 -2 -113 -119 0 -85 12 -111 51 -111 18 0
19 -11 19 -324 l0 -324 -43 -6 c-51 -8 -145 -51 -202 -93 -54 -40 -114 -129
-141 -211 l-23 -67 -221 -3 -221 -2 -30 29 c-28 28 -29 33 -29 120 l0 91 87 0
c86 0 87 0 118 -34 38 -42 74 -52 126 -37 69 21 99 103 64 171 -22 43 -53 60
-109 60 -44 0 -53 -4 -86 -40 l-37 -40 -81 0 -82 0 0 88 c0 75 -3 92 -23 121
l-23 34 86 86 c144 143 254 307 337 504 39 94 88 274 98 362 3 33 9 72 11 88
l6 27 302 0 303 0 13 -44 c7 -25 30 -72 52 -105 141 -217 442 -277 664 -133
77 50 128 109 173 202 35 73 36 78 36 190 0 114 -1 117 -38 192 -122 248 -413
347 -656 223 -79 -40 -165 -127 -206 -207 -19 -39 -35 -77 -35 -84 0 -12 -54
-14 -304 -14 l-305 0 -6 58 c-20 172 -75 353 -156 513 -62 124 -113 196 -200
287 l-71 72 -108 0 -109 0 52 -52z m1799 -710 c114 -53 183 -159 182 -283 -1
-95 -30 -160 -100 -224 -65 -59 -124 -81 -219 -81 -127 0 -227 67 -283 190
-61 132 -9 304 115 377 101 59 205 66 305 21z m-704 -1625 c-10 -2 -26 -2 -35
0 -10 3 -2 5 17 5 19 0 27 -2 18 -5z m118 -196 c107 -55 168 -153 168 -272 0
-91 -29 -158 -95 -220 -68 -64 -127 -88 -216 -89 -62 0 -80 4 -139 34 -178 91
-222 304 -98 467 80 105 257 142 380 80z m-2121 -821 c69 -31 106 -65 140
-128 26 -46 30 -63 30 -133 0 -93 -22 -148 -82 -210 -58 -60 -133 -90 -223
-90 -87 1 -145 22 -207 78 -112 101 -125 291 -27 405 90 105 240 137 369 78z"/>
<path d="M7475 4800 c-3 -5 0 -10 7 -10 9 0 9 -3 -2 -10 -11 -7 -14 -25 -13
-70 2 -34 5 -65 8 -71 4 -5 44 -9 90 -9 95 0 95 0 95 90 0 90 0 90 -95 90 -46
0 -87 -4 -90 -10z m115 -16 c0 -2 -17 -4 -37 -3 -33 1 -35 2 -13 8 23 7 50 4
50 -5z m50 -11 c0 -11 -3 -14 -8 -7 -4 6 -14 14 -22 17 -10 4 -8 6 8 6 15 1
22 -5 22 -16z m0 -83 c0 -22 -3 -40 -8 -40 -4 0 -6 18 -4 40 2 22 6 40 8 40 2
0 4 -18 4 -40z"/>
<path d="M6178 3403 c17 -2 47 -2 65 0 17 2 3 4 -33 4 -36 0 -50 -2 -32 -4z"/>
<path d="M6273 3320 c0 -25 2 -35 4 -22 2 12 2 32 0 45 -2 12 -4 2 -4 -23z"/>
<path d="M5688 3309 c-15 -8 -18 -25 -18 -107 0 -63 4 -102 12 -110 8 -8 46
-12 103 -12 57 0 95 4 103 12 8 8 12 47 12 108 0 61 -4 100 -12 108 -15 15
-175 16 -200 1z"/>
<path d="M6062 3290 c0 -14 2 -19 5 -12 2 6 2 18 0 25 -3 6 -5 1 -5 -13z"/>
<path d="M6235 3220 l-30 -8 27 -1 c15 0 30 4 33 9 3 6 5 9 3 9 -2 -1 -16 -5
-33 -9z"/>
<path d="M6118 3213 c7 -3 16 -2 19 1 4 3 -2 6 -13 5 -11 0 -14 -3 -6 -6z"/>
</g>
</svg>
